<svg width="158" height="139" viewBox="0 0 158 139" fill="none" xmlns="http://www.w3.org/2000/svg">
<path d="M70.9259 33.0027C70.9259 16.5027 84.8009 2.77773 101.301 3.00273C107.079 3.06944 112.715 4.80362 117.532 7.99679C122.348 11.19 126.14 15.7063 128.451 21.0027H154.926L130.701 45.2277C129.138 69.562 118.366 92.3876 100.575 109.064C82.7842 125.74 59.3104 135.015 34.9259 135.003C10.9259 135.003 4.92593 126.003 4.92593 126.003C4.92593 126.003 28.9259 117.003 40.9259 99.0027C40.9259 99.0027 -7.07407 75.0027 4.92593 9.00273C4.92593 9.00273 34.9259 39.0027 70.9259 45.0027V33.0027Z" fill="white" stroke="white" stroke-width="6" stroke-linecap="round" stroke-linejoin="round"/>
</svg>
